# xmcd CD database file
#
# Track frame offsets:
#	150
#	15584
#	32201
#	58440
#	74602
#	90473
#	109014
#	129816
#	151133
#	167983
#	183662
#	200045
#
# Disc length: 2872 seconds
#
# Revision: 0
# Processed by: cddbd v1.5.1PL0 Copyright (c) Steve Scherf et al.
# Submitted via: CDex 1.51
#
DISCID=a70b360c
DTITLE=Various Artist - 98.9 Smooth Jazz Benefit CD Sampler v.9
DYEAR=2005
DGENRE=Jazz
TTITLE0=Acoustic Alchemy - No Messin'
TTITLE1=Jeff Lorber - Ooh La La
TTITLE2=David Sanborn w/ Lizz Wright - Don't Let Me Be Lonely Tonight
TTITLE3=Euge Groove - Livin' Large
TTITLE4=Greg Adams - Midnight Morning
TTITLE5=Richard Elliot - In the Groove
TTITLE6=3rd Force - You Gotta Be Real
TTITLE7=Dave Koz feat. Chris Botti - Love is on the Way
TTITLE8=Jonathan Butler - Fire and Rain
TTITLE9=Brian Simpson - It's All Good
TTITLE10=Ronnie Laws - Listen Here
TTITLE11=Earl Klugh - Jamaica Farewell
EXTD=YEAR: 2005
EXTT0=
EXTT1=
EXTT2=
EXTT3=
EXTT4=
EXTT5=
EXTT6=
EXTT7=
EXTT8=
EXTT9=
EXTT10=
EXTT11=
PLAYORDER=
